<mxfile host="Electron" modified="2023-07-11T17:51:59.727Z" agent="Mozilla/5.0 (Windows NT 10.0; Win64; x64) AppleWebKit/537.36 (KHTML, like Gecko) draw.io/21.1.2 Chrome/106.0.5249.199 Electron/21.4.3 Safari/537.36" etag="-u8f1ah7H9259Kg_rDwD" version="21.1.2" type="device">
  <diagram name="Page-1" id="Oto3vCz0UdIOsgtr0guS">
    <mxGraphModel dx="3813" dy="2810" grid="1" gridSize="10" guides="1" tooltips="1" connect="1" arrows="1" fold="1" page="1" pageScale="1" pageWidth="850" pageHeight="1100" math="0" shadow="0">
      <root>
        <mxCell id="0" />
        <mxCell id="1" parent="0" />
        <mxCell id="VCBSVivnQ_61nUVmc-9F-21" value="local workspace" style="rounded=0;whiteSpace=wrap;html=1;verticalAlign=top;fillColor=#d5e8d4;strokeColor=#82b366;fontSize=16;" vertex="1" parent="1">
          <mxGeometry x="270" y="-120" width="280" height="670" as="geometry" />
        </mxCell>
        <mxCell id="VCBSVivnQ_61nUVmc-9F-4" value="node_modules" style="rounded=0;whiteSpace=wrap;html=1;verticalAlign=top;fillColor=#d5e8d4;strokeColor=#82b366;fontSize=16;" vertex="1" parent="1">
          <mxGeometry x="300" y="120" width="220" height="190" as="geometry" />
        </mxCell>
        <mxCell id="VCBSVivnQ_61nUVmc-9F-1" value="package 1" style="rounded=0;whiteSpace=wrap;html=1;fillColor=#fff2cc;strokeColor=#d6b656;" vertex="1" parent="1">
          <mxGeometry x="340" y="160" width="120" height="40" as="geometry" />
        </mxCell>
        <mxCell id="VCBSVivnQ_61nUVmc-9F-2" value="package 2" style="rounded=0;whiteSpace=wrap;html=1;fillColor=#fff2cc;strokeColor=#d6b656;" vertex="1" parent="1">
          <mxGeometry x="340" y="230" width="120" height="40" as="geometry" />
        </mxCell>
        <mxCell id="VCBSVivnQ_61nUVmc-9F-6" value="Registry&amp;nbsp;&lt;br style=&quot;font-size: 24px;&quot;&gt;https://registry.npmjs.org/" style="rounded=0;whiteSpace=wrap;html=1;verticalAlign=top;fillColor=#dae8fc;strokeColor=#6c8ebf;fontSize=24;" vertex="1" parent="1">
          <mxGeometry x="-360" y="110" width="310" height="210" as="geometry" />
        </mxCell>
        <mxCell id="VCBSVivnQ_61nUVmc-9F-7" value="package 1" style="rounded=0;whiteSpace=wrap;html=1;fillColor=#fff2cc;strokeColor=#d6b656;" vertex="1" parent="1">
          <mxGeometry x="-190" y="180" width="120" height="40" as="geometry" />
        </mxCell>
        <mxCell id="VCBSVivnQ_61nUVmc-9F-22" value="server" style="rounded=0;whiteSpace=wrap;html=1;verticalAlign=top;fillColor=#d5e8d4;strokeColor=#82b366;fontSize=16;" vertex="1" parent="1">
          <mxGeometry x="310" y="350" width="210" height="130" as="geometry" />
        </mxCell>
        <mxCell id="VCBSVivnQ_61nUVmc-9F-8" value="package 2" style="rounded=0;whiteSpace=wrap;html=1;fillColor=#fff2cc;strokeColor=#d6b656;" vertex="1" parent="1">
          <mxGeometry x="-190" y="240" width="120" height="40" as="geometry" />
        </mxCell>
        <mxCell id="VCBSVivnQ_61nUVmc-9F-9" value="Editor&lt;br style=&quot;font-size: 24px;&quot;&gt;Visual Studio Code" style="rounded=0;whiteSpace=wrap;html=1;fillColor=#dae8fc;strokeColor=#6c8ebf;fontSize=24;" vertex="1" parent="1">
          <mxGeometry x="-20" y="360" width="220" height="140" as="geometry" />
        </mxCell>
        <mxCell id="VCBSVivnQ_61nUVmc-9F-16" value="" style="endArrow=classic;html=1;rounded=0;exitX=1;exitY=0.5;exitDx=0;exitDy=0;entryX=0;entryY=0.5;entryDx=0;entryDy=0;" edge="1" parent="1" source="VCBSVivnQ_61nUVmc-9F-9" target="VCBSVivnQ_61nUVmc-9F-5">
          <mxGeometry width="50" height="50" relative="1" as="geometry">
            <mxPoint x="280" y="340" as="sourcePoint" />
            <mxPoint x="330" y="290" as="targetPoint" />
          </mxGeometry>
        </mxCell>
        <mxCell id="VCBSVivnQ_61nUVmc-9F-17" value="" style="endArrow=classic;html=1;rounded=0;exitX=1;exitY=0.5;exitDx=0;exitDy=0;entryX=0;entryY=0.5;entryDx=0;entryDy=0;" edge="1" parent="1" source="VCBSVivnQ_61nUVmc-9F-6" target="VCBSVivnQ_61nUVmc-9F-4">
          <mxGeometry width="50" height="50" relative="1" as="geometry">
            <mxPoint x="280" y="340" as="sourcePoint" />
            <mxPoint x="330" y="290" as="targetPoint" />
          </mxGeometry>
        </mxCell>
        <mxCell id="VCBSVivnQ_61nUVmc-9F-18" value="&lt;font style=&quot;font-size: 24px;&quot;&gt;npm&lt;/font&gt;" style="edgeLabel;html=1;align=center;verticalAlign=middle;resizable=0;points=[];fontSize=10;" vertex="1" connectable="0" parent="VCBSVivnQ_61nUVmc-9F-17">
          <mxGeometry x="0.0716" y="2" relative="1" as="geometry">
            <mxPoint as="offset" />
          </mxGeometry>
        </mxCell>
        <mxCell id="VCBSVivnQ_61nUVmc-9F-19" value="" style="ellipse;shape=cloud;whiteSpace=wrap;html=1;" vertex="1" parent="1">
          <mxGeometry x="-10" y="175" width="120" height="80" as="geometry" />
        </mxCell>
        <mxCell id="VCBSVivnQ_61nUVmc-9F-5" value="Server" style="rounded=0;whiteSpace=wrap;html=1;fillColor=#fff2cc;strokeColor=#d6b656;" vertex="1" parent="1">
          <mxGeometry x="340" y="410" width="120" height="40" as="geometry" />
        </mxCell>
        <mxCell id="VCBSVivnQ_61nUVmc-9F-24" value="Node.js" style="whiteSpace=wrap;html=1;aspect=fixed;fillColor=#00FF00;strokeColor=#82b366;gradientColor=none;fontSize=24;" vertex="1" parent="1">
          <mxGeometry x="750" y="365" width="130" height="130" as="geometry" />
        </mxCell>
        <mxCell id="VCBSVivnQ_61nUVmc-9F-25" value="Chrome" style="whiteSpace=wrap;html=1;aspect=fixed;fillColor=#00FF00;strokeColor=#82b366;gradientColor=none;fontSize=24;" vertex="1" parent="1">
          <mxGeometry x="890" y="-55" width="130" height="130" as="geometry" />
        </mxCell>
        <mxCell id="VCBSVivnQ_61nUVmc-9F-26" value="" style="endArrow=classic;html=1;rounded=0;exitX=1;exitY=0.5;exitDx=0;exitDy=0;entryX=0;entryY=0.5;entryDx=0;entryDy=0;" edge="1" parent="1" source="VCBSVivnQ_61nUVmc-9F-5" target="VCBSVivnQ_61nUVmc-9F-24">
          <mxGeometry width="50" height="50" relative="1" as="geometry">
            <mxPoint x="810" y="670" as="sourcePoint" />
            <mxPoint x="860" y="620" as="targetPoint" />
          </mxGeometry>
        </mxCell>
        <mxCell id="VCBSVivnQ_61nUVmc-9F-27" value="" style="endArrow=classic;html=1;rounded=0;edgeStyle=orthogonalEdgeStyle;exitX=1;exitY=0.5;exitDx=0;exitDy=0;entryX=0;entryY=0.25;entryDx=0;entryDy=0;" edge="1" parent="1" source="VCBSVivnQ_61nUVmc-9F-2" target="VCBSVivnQ_61nUVmc-9F-24">
          <mxGeometry width="50" height="50" relative="1" as="geometry">
            <mxPoint x="810" y="670" as="sourcePoint" />
            <mxPoint x="860" y="620" as="targetPoint" />
          </mxGeometry>
        </mxCell>
        <mxCell id="VCBSVivnQ_61nUVmc-9F-29" value="front end" style="rounded=0;whiteSpace=wrap;html=1;verticalAlign=top;fillColor=#d5e8d4;strokeColor=#82b366;" vertex="1" parent="1">
          <mxGeometry x="305" y="-60" width="210" height="130" as="geometry" />
        </mxCell>
        <mxCell id="VCBSVivnQ_61nUVmc-9F-30" value="Client" style="rounded=0;whiteSpace=wrap;html=1;fillColor=#fff2cc;strokeColor=#d6b656;" vertex="1" parent="1">
          <mxGeometry x="355" y="-10" width="120" height="40" as="geometry" />
        </mxCell>
        <mxCell id="VCBSVivnQ_61nUVmc-9F-32" value="" style="sketch=0;aspect=fixed;pointerEvents=1;shadow=0;dashed=0;html=1;strokeColor=#82b366;labelPosition=center;verticalLabelPosition=bottom;verticalAlign=top;align=center;fillColor=#d5e8d4;shape=mxgraph.mscae.enterprise.web_server;gradientColor=#97d077;" vertex="1" parent="1">
          <mxGeometry x="640" y="-50" width="91.2" height="120" as="geometry" />
        </mxCell>
        <mxCell id="VCBSVivnQ_61nUVmc-9F-33" value="" style="endArrow=classic;html=1;rounded=0;exitX=1;exitY=0.5;exitDx=0;exitDy=0;entryX=0;entryY=0.5;entryDx=0;entryDy=0;entryPerimeter=0;" edge="1" parent="1" source="VCBSVivnQ_61nUVmc-9F-30" target="VCBSVivnQ_61nUVmc-9F-32">
          <mxGeometry width="50" height="50" relative="1" as="geometry">
            <mxPoint x="810" y="240" as="sourcePoint" />
            <mxPoint x="860" y="190" as="targetPoint" />
          </mxGeometry>
        </mxCell>
        <mxCell id="VCBSVivnQ_61nUVmc-9F-34" value="" style="endArrow=classic;html=1;rounded=0;exitX=1;exitY=0.5;exitDx=0;exitDy=0;edgeStyle=orthogonalEdgeStyle;entryX=0;entryY=0.5;entryDx=0;entryDy=0;entryPerimeter=0;" edge="1" parent="1" source="VCBSVivnQ_61nUVmc-9F-1" target="VCBSVivnQ_61nUVmc-9F-32">
          <mxGeometry width="50" height="50" relative="1" as="geometry">
            <mxPoint x="810" y="240" as="sourcePoint" />
            <mxPoint x="860" y="190" as="targetPoint" />
          </mxGeometry>
        </mxCell>
        <mxCell id="VCBSVivnQ_61nUVmc-9F-35" value="" style="endArrow=classic;html=1;rounded=0;exitX=0.64;exitY=0.49;exitDx=0;exitDy=0;exitPerimeter=0;entryX=0;entryY=0.5;entryDx=0;entryDy=0;" edge="1" parent="1" source="VCBSVivnQ_61nUVmc-9F-32" target="VCBSVivnQ_61nUVmc-9F-25">
          <mxGeometry width="50" height="50" relative="1" as="geometry">
            <mxPoint x="810" y="240" as="sourcePoint" />
            <mxPoint x="860" y="190" as="targetPoint" />
          </mxGeometry>
        </mxCell>
        <mxCell id="VCBSVivnQ_61nUVmc-9F-38" value="" style="endArrow=classic;html=1;rounded=0;exitX=1;exitY=0.5;exitDx=0;exitDy=0;entryX=0;entryY=0.25;entryDx=0;entryDy=0;edgeStyle=orthogonalEdgeStyle;" edge="1" parent="1" source="VCBSVivnQ_61nUVmc-9F-9" target="VCBSVivnQ_61nUVmc-9F-30">
          <mxGeometry width="50" height="50" relative="1" as="geometry">
            <mxPoint x="810" y="230" as="sourcePoint" />
            <mxPoint x="860" y="180" as="targetPoint" />
          </mxGeometry>
        </mxCell>
      </root>
    </mxGraphModel>
  </diagram>
</mxfile>
